<svg width="20" height="20" viewBox="0 0 20 20" fill="none" xmlns="http://www.w3.org/2000/svg">
<path d="M19.9665 9.61258C19.9665 9.61258 15.8457 13.8584 12.0832 15.2167V13.4459C13.329 12.7001 14.1665 11.3126 14.1665 9.71675C14.1665 7.34175 12.2999 5.41675 9.99987 5.41675C7.69987 5.41675 5.8332 7.34175 5.8332 9.71675C5.8332 11.2792 6.63737 12.6417 7.84154 13.4001C7.66654 13.8876 7.44987 14.4209 7.1832 14.9209C3.63737 13.3251 0.0332031 9.61258 0.0332031 9.61258C0.0332031 9.61258 5.88737 4.16675 9.99987 4.16675C14.1124 4.16675 19.9665 9.61258 19.9665 9.61258Z" fill="#F3F3F3"/>
<path d="M7.0835 10L10.0002 6.25L12.9168 10L11.2502 12.0833V15.4167C11.2502 15.4167 10.3822 15.4167 9.5835 15.4167C8.78475 15.4167 7.91683 15 7.91683 15C7.91683 15 9.16683 14.4792 9.16683 12.0833L7.0835 10ZM10.0002 9.24583L8.60266 10.6433L10.1997 12.0408L11.5972 10.6433L10.0002 9.24583Z" fill="#F3F3F3"/>
<path d="M9.18945 10.6207L9.99987 9.8103L11.057 10.6678L10.152 11.4741L9.18945 10.6207Z" fill="#F3F3F3"/>
<path d="M11.2498 15H10.4165V17.0833H11.2498V15Z" fill="#F3F3F3"/>
<path d="M9.99984 15H9.1665V17.0833H9.99984V15Z" fill="#F3F3F3"/>
</svg>