<svg width="860" height="768" viewBox="0 0 860 768" fill="none" xmlns="http://www.w3.org/2000/svg">
<path d="M790 715.9C779.3 711.1 773 700.4 777.4 694.5C778.4 693.1 779.5 692.8 782.5 693.3C787.5 694.1 790.5 696.2 793.5 701.1C794.9 703.3 797.3 705.5 798.7 706.1C802.6 707.6 807 702.8 811 692.7C814.2 684.6 814.3 684.3 813.7 672.5C813 658.9 811.2 649.5 807.7 641.2C806.4 638.1 802.6 627.4 799.2 617.5C795.9 607.6 791.3 594.8 789 589C772.7 547.9 770.4 537.1 775.1 524.5C779.7 512.1 789.5 505.8 801.1 507.6C804.3 508.1 806.4 509.4 809.5 512.5C814.1 517.1 815.5 521.2 813.7 525C811.7 529.1 808.4 528.8 803.5 524C799.6 520.2 799 519.9 796.9 521C790.9 524.1 790 525.8 790 533.9C790 538.1 790.7 544.5 791.5 548.3C793.7 559 802.3 583.7 808.3 596.6C813.4 607.6 822.1 632.6 827.2 650.9C828.8 656.6 829.4 662.3 829.8 673.9C830.2 688.8 830.1 689.5 827.5 696.4C823.3 707.1 820.3 711 813.5 714.7C806 718.7 797.2 719.2 790 715.9Z" fill="#F3F3F3"/>
<path d="M734.7 710.6C724.4 707.1 714.8 703.5 713.5 702.6C706.3 697.9 704.7 685.9 706.7 651.5C708.3 624.3 708 593.7 706 577C705 568 705 563.5 706.6 545.7L708.4 524.9L706.1 519.7C702.5 511.5 702.4 510.6 705.7 509C707.2 508.3 712.6 507.5 717.5 507.3C726 506.9 727.4 507.1 742.9 511.9C751.9 514.6 759.5 517.2 759.8 517.5C760.2 517.8 759.9 518.9 759.3 519.8C757.8 522.2 752.4 521.9 741.7 518.9C733.4 516.6 732.8 516.6 731.6 518.2C730.4 519.8 729.4 525.3 724.4 557.3L722.7 568.1L725.6 572.3C729.6 578 743.1 589.2 750.7 593.1C757 596.3 758.3 598.3 755.8 600.8C753.7 602.9 751.8 602.1 739.4 593.9C732.6 589.4 726.8 586 726.3 586.3C725.8 586.6 725.4 596.7 725.2 608.7C725.1 626.9 723.6 652.5 721.3 678.9L720.8 684.2L725.9 689C731.2 694 742.4 700.3 752.5 704C755.8 705.3 759.3 706.9 760.3 707.8C763.9 711 761.1 717 755.9 717C754.6 717 745 714.1 734.7 710.6Z" fill="#F3F3F3"/>
<path d="M44 713C39.7 706.9 39.7 707 38.2 603C37.3 536.9 37.1 531.9 35.1 522.9C34 517.6 32.3 511.4 31.5 509C30.7 506.7 30 503 30 500.9C30 494.9 32.5 493.9 46.5 493.7C60.7 493.5 60.2 493.1 65.6 509.3C67.6 515.4 72.4 527.2 76.2 535.3C83.3 550.4 84.5 554.4 94 594.3C95.9 601.8 97.9 608.5 98.7 609.1C99.4 609.7 100.1 610.1 100.2 609.9C100.3 609.7 100.7 585.7 101 556.5L101.5 503.5L105.6 503.2C108.4 503 110.4 503.5 112 504.8L114.3 506.7L113 522.6C112.2 533 111.5 567.1 111.1 621.5C110.8 667.2 110.1 705.1 109.7 705.8C108.5 707.6 105.2 707.3 104.1 705.1C103.5 704.1 101.9 694.2 100.5 683.2C98 663.4 95.2 648.1 90.5 628.5C85.9 609.5 84.1 601.4 80.5 585C75.9 563.8 72.5 550.4 70.5 545.5C64 529.6 59.8 521.5 58 521.5C56.2 521.5 56.2 521.2 58.5 551.9C60.2 575.9 60.3 603.7 59 656.3C58.3 686.5 58.4 692.7 59.6 695.5C60.4 697.4 61 701.4 61 704.4C61 711.9 58.3 715.1 51.3 715.7C46.6 716.2 46.2 716.1 44 713Z" fill="#F3F3F3"/>
<path d="M665.6 712.8C658.9 703.9 654.5 686.4 651.5 656.3C650 640.9 649.4 638 648 638C646 638 646 638.4 643.1 684.4C642.6 692.3 641.7 699.7 641.1 700.9C639.7 703.4 635.3 704.7 633.1 703.3C631.9 702.5 631.3 699.7 630.8 691.4C629.1 666.8 626.9 639.6 625.5 626C624.3 614.8 624.1 604.3 624.6 580C624.9 562.7 624.7 542.8 624.2 535.8C623.3 524.3 622.9 522.6 620.1 517.5C616.3 510.9 616.9 509.1 623.2 506.5C629.5 504 636.6 503.6 643.5 505.3C646.8 506.1 652.2 507.1 655.5 507.5C668.8 508.9 676.5 513 680.4 520.8C682.4 524.8 683 529 684.9 549.5C688.4 589.2 687.6 609.7 681.9 622.9C679 629.7 675.9 631.4 668.1 630.5C663.2 629.9 662.2 630.1 660.6 631.9C658.9 633.8 658.9 634.5 660.4 649.2C661.8 662.9 664.3 676.9 669.7 701C670.6 705.1 671.4 710.1 671.4 712C671.5 716.8 668.9 717.1 665.6 712.8ZM666.4 613.7C669 611.1 670.1 605.8 672.1 587.5C673.2 578.1 673.1 573.2 671.6 555.1C669.1 525.5 667.2 519.2 659.6 515.6C654.6 513.3 650.4 513.6 647.5 516.5C645.4 518.5 645 519.9 645 524.7C645 527.9 644.5 547.8 644 568.9C643.4 593.7 643.4 608 644.1 609.1C645.3 611.4 648.2 613 654 614.6C660.9 616.5 663.8 616.3 666.4 613.7Z" fill="#F3F3F3"/>
<path d="M438.9 711.4C436.8 708.9 437 654.8 439.3 623.5C443.7 560.3 443.7 544.6 438.9 525.4C437.7 520.8 437.1 515.9 437.4 514.5C438.3 510.9 442.8 509 450.4 509C462.2 509 464.1 511.2 467.5 528.3C468.8 535.1 470.9 544 472.1 548.1C476.1 562.1 477.9 571.5 479 584.5C481.3 613 482.1 620.5 482.9 621.3C484.5 622.9 484.2 624.3 490.9 588.5C497.5 553.9 499 544.6 499.6 536.2C500.2 528.7 500.8 526.4 504.2 519.8C507.9 512.6 508.4 512.1 513 510.6C519.3 508.5 523.4 508.6 525.1 510.7C526.9 512.8 526.9 559 525.1 585C522.2 628.9 521.8 637.9 521.6 660C521.5 679.2 521.9 685.6 523.4 694.7C526.1 710.3 524.6 713 513 713C507.2 713 507.6 714.1 505.9 693.2C504.4 674.9 505.3 610.7 507.4 584.6C508.3 574.1 508.7 565.4 508.5 565.1C507.2 563.9 506 567.3 503.6 578C498.2 602.6 494.4 622.9 485.9 671.8C483.1 688 480.3 703.1 479.6 705.3C478.4 709.5 475.8 711.2 473.8 709.2C473.2 708.6 472.9 695.8 472.9 674.8C473 656.4 472.6 636.4 472.1 630.4C471.5 624.4 470.6 611.6 470 602C469.1 586.2 466.8 564.1 465.5 558.3C465.2 557 464.5 556 464 556C463.4 556 463 561.6 463 570.3C463 588.5 461.5 618.8 458.9 655C456.1 693.3 454.7 705.1 452.3 709.2C450.6 712.2 449.9 712.5 445.4 712.8C441.6 713 440 712.7 438.9 711.4Z" fill="#F3F3F3"/>
<path d="M592.4 711C589.5 709.9 589.1 707.5 589.1 694.3C589.1 688.1 588.9 682.6 588.6 682.1C588.2 681.6 587.5 673.2 587 663.5C586.4 653.8 585.5 644.9 585 643.9C583.1 640.5 580.3 639.8 571.9 640.5C567.6 640.9 563.4 641.7 562.6 642.3C561.6 643.2 560.3 650.3 558.1 667C556.4 679.9 555 692.5 554.9 695C554.7 701.8 553.7 704.3 550.1 706.7C546.4 709.2 545.2 709.4 543.1 708.1C542 707.4 541.7 704.8 541.8 696.8C542.1 681.7 545.8 647.2 548.4 635.2C550.7 624.7 555 596.9 555.1 592.5C555.1 590.3 555.7 584.9 556.5 580.5C557.4 576.1 558.5 567.8 559 562C559.5 556.2 560.4 548.4 561 544.5C561.5 540.7 562.5 530.5 563.1 522C563.7 513.5 564.7 505.7 565.1 504.8C567.6 500.2 574.8 502.2 577.5 508.3C580.3 514.8 584.1 528.7 585.6 538C586.5 543.2 588.7 556.5 590.6 567.5C595.3 595.2 599.7 637.9 600.5 663.5C600.7 671.2 601.6 683.7 602.5 691.2C603.3 698.7 603.7 705.6 603.4 706.5C602.9 707.8 595.9 712.2 594.8 711.9C594.6 711.9 593.5 711.5 592.4 711ZM582.4 629.1C584.5 627.4 584.5 622 582.4 606.5C581.6 599.9 580.5 590.2 580 585C578.5 568.7 575.8 558.9 573.4 561.3C573.1 561.6 571.7 569.8 570.4 579.4C569.2 589 567.6 599.5 567.1 602.7C566.5 605.9 565.6 612.6 565.1 617.5C564.3 625 564.4 626.9 565.7 628.9C567.1 631 567.7 631.2 574 630.8C577.7 630.6 581.5 629.8 582.4 629.1Z" fill="#F3F3F3"/>
<path d="M389.9 707.5C388.4 706.7 386.9 705.3 386.6 704.3C386.2 703.4 386 692.2 386.1 679.5C386.2 666.9 386.2 630.6 386 599C385.9 545 385.2 527.8 383.1 525.7C382.7 525.3 379.6 524.5 376.2 524C367.9 522.9 366 521.7 366 517.6C366 512.1 369 510.3 380.6 508.9C388.2 508 394.4 507.9 406 508.7C420.1 509.6 421.5 509.9 423.2 512C425.3 514.6 425.5 517.9 423.7 520.4C422.6 521.9 420.5 522.4 414.6 522.8C408.4 523.2 406.7 523.6 405.9 525.2C405.3 526.2 405.1 527.8 405.4 528.8C405.9 530.4 407.4 626 407.2 642C407.1 646.1 406.9 660.5 406.8 674C406.4 701.3 406.1 702.9 399.7 706.9C395.7 709.3 393.5 709.5 389.9 707.5Z" fill="#F3F3F3"/>
<path d="M275.6 706.7C273.7 705.3 273.7 704 274.3 671.9C274.7 653.5 275.5 632.4 276 625C276.5 617.6 277.5 601.6 278 589.5C279.8 550.7 281.9 514.6 282.6 509.7C283.1 506.2 283.9 504.4 285.6 503.3C288.6 501.4 294.3 502.3 297.2 505.2C299.5 507.5 299.5 509 296.3 560.7C295.4 575.7 294.9 588.3 295.4 588.7C296.2 589.5 323.1 590.8 326.2 590.2C327.1 590 328.1 588.8 328.4 587.7C328.7 586.5 329.5 567.3 330 545C330.6 522.7 331.3 503.9 331.5 503.2C332.3 501.1 336.5 500 340.4 501.1C347.1 502.9 347.2 503.5 347.2 536.2C347.2 552.7 346.7 568.1 346.1 571.5C345.6 574.8 344.8 589.9 344.5 605C344.2 620.1 343.3 639 342.5 647C341.7 655 340.6 670.7 339.9 682C338.5 706.5 338.3 707 330.6 707C327 707 324.8 706.5 324 705.5C322.2 703.4 322.6 674.9 324.5 661.1C325.7 652.6 328.2 614 328.1 605.6C328.1 602.2 326.1 601.5 314.3 601.1C300.9 600.7 295.3 601.9 294.6 605.3C294.3 606.5 293.6 616.5 293 627.5C292.4 638.5 291.5 653.6 291 661C290.5 668.4 290.1 681.3 290 689.6C290 702 289.7 705 288.5 706C286.1 708 277.9 708.4 275.6 706.7Z" fill="#F3F3F3"/>
<path d="M144.6 698.8C143.2 696.9 143 692.4 143 669.5C143.1 654.7 143.5 635.3 144 626.5C145.1 607.5 147.1 564.2 147.2 558.5C147.2 556.3 146.9 546.2 146.5 536C146 521.7 146.2 516.5 147.2 513L148.6 508.5L153.9 508.2C156.9 508 159.8 508.4 160.6 509.1C163.4 511.4 161.6 602.8 157.9 645.3C157.1 654.8 157.1 662.9 157.9 675.8C159.2 695.3 158.7 699.1 154.9 700.1C149.8 701.5 146.2 701.1 144.6 698.8Z" fill="#F3F3F3"/>
<path d="M213.5 697.1C201.9 690.4 195.2 678.7 189.8 655.5C186.8 642.8 186.3 602.5 188.4 556.1C189.8 526.7 190.3 521.2 191.8 518.6C197 509.7 223.5 507.1 238.3 514C246.5 517.9 250.5 529.3 250.4 548.3C250.4 558.1 250.1 560.4 248.6 561.8C247 563.4 246.8 563.4 245 561.3C244 560 242.6 555.7 242 551.8C237.5 525.1 233.1 516 224.4 516C218.7 516 211.8 522.1 210.1 528.8C209 533 207.3 567.7 206.4 607C205.4 645.7 208.5 672.7 214.7 680.1C219 685.2 225.4 687.3 230.5 685.4C233.5 684.2 239.2 668.6 241.5 655C242.5 649.4 242.6 643.4 242 631C240.9 609.9 240 607.6 232.1 605.4C229 604.5 225.7 603.1 224.8 602.2C222.6 600.3 222.5 597.1 224.5 596.4C228.3 594.9 252.4 601 253.4 603.6C253.7 604.5 253.5 608.2 252.9 611.8C252.2 615.9 251.9 623.4 252.3 631.5C253.8 664.3 247.4 688.1 235 696.4C228.4 700.9 220.3 701.2 213.5 697.1Z" fill="#F3F3F3"/>
<path d="M351.4 485.8C350.9 485.1 350.3 479.6 349.9 473.5C349.5 467.5 348.6 455.5 348 447C347.3 438.5 346.7 430.4 346.6 429.1C346.5 426.1 349.3 424.1 351.8 425.6C353.1 426.4 353.7 428.8 354.3 435.6C354.8 440.5 355.9 452.4 356.8 462L358.5 479.5L363.7 479.8C367 480 369 480.6 369.4 481.5C370.5 484.5 368.9 485.7 362.8 486.4C354.2 487.3 352.2 487.2 351.4 485.8Z" fill="#F3F3F3"/>
<path d="M444.8 485.9C443.2 485 443 483 443.1 466.7C443.1 438 444.1 433.1 449.4 433C451.1 433 451.2 434.1 451 455.8C450.8 468.3 450.8 479.1 450.9 479.8C450.9 480.5 452.6 481 455.4 481C460.6 481 463.8 483.3 461.9 485.6C460.5 487.3 447.5 487.5 444.8 485.9Z" fill="#F3F3F3"/>
<path d="M470 486L466.5 485.5L466.9 461C467.1 447.4 467.7 435.7 468.2 434.6C469.1 433 470 432.8 475.3 433.4C481.5 434 484 435.2 484 437.6C484 439.5 480.4 441.1 477.7 440.5C475.5 439.9 475.2 440.2 474.6 444.6C473.6 452.4 473.7 452.8 477.1 453.2C483.4 453.8 483.2 460 476.9 460C474.2 460 474 460.3 474 463.9C474 466 473.7 470.5 473.4 473.8C472.7 480.5 472.5 480.3 479.3 481.5C482 481.9 483 482.6 483 483.9C483 485.5 482.1 485.9 478.3 486.2C475.6 486.3 471.9 486.3 470 486Z" fill="#F3F3F3"/>
<path d="M380.1 484.1C378.5 482.5 378.1 480 377.6 467.4C376.2 435.7 376.3 433.5 378.6 433.2C383.1 432.6 383.8 435.1 385.1 458.1C385.8 469.9 386 480.8 385.7 482.2C384.8 485.6 382.4 486.4 380.1 484.1Z" fill="#F3F3F3"/>
<path d="M403.4 484.8C403 484.2 402.3 475.9 401.9 466.6C401.4 457.2 400.8 447.2 400.5 444.4C399.9 439.5 399.7 439.2 395.9 437.7C392.9 436.5 391.9 435.6 392.2 434.3C392.5 432.7 393.6 432.5 402.5 432.7C412.8 433 415.7 434.1 414.4 437.3C413.8 439 412.3 439.4 408.6 439C406.9 438.9 406.8 439.4 407.4 445.7C409.2 466 410.2 483.2 409.6 484.5C409 486.3 404.4 486.5 403.4 484.8Z" fill="#F3F3F3"/>
<path d="M428.2 484.3C427.7 483.3 427 475.4 426.6 466.8C426.3 458.1 425.7 448.4 425.4 445.2C424.8 439.7 424.6 439.3 421.6 438.4C418.1 437.4 417 434.6 419.7 433.2C420.7 432.7 425.3 432.6 430 432.9C437.8 433.4 438.5 433.7 438.8 435.7C439.2 438.2 436.1 440.3 433.5 439.3C431.6 438.6 431.7 440.9 434.2 470.3C435 480.2 435 483.3 434 484.5C432.3 486.5 429.3 486.4 428.2 484.3Z" fill="#F3F3F3"/>
<path d="M389.4 408.6C389.1 407.8 389.4 405.5 390 403.3C390.6 401.2 391.4 393.5 391.7 386.3L392.3 373L385.9 370.1C382.4 368.6 375.7 366.3 371 365C363.7 363.1 359.5 361.6 358.2 360.4C358 360.3 360 356.2 362.6 351.3C371.4 335.2 373.1 331.1 374.1 323.2C376.6 304 379.1 287.3 381.6 273.4C383.1 265.1 384 257.2 383.7 255.9C383.3 254.5 378 248.9 371.3 243C350.6 224.5 343.3 217.1 338.4 209.9L333.6 202.9L336.4 197.4C341 188.6 349.9 175.5 361.1 161C373.8 144.4 381.8 132.8 389.8 119C397.6 105.7 406 94.5 408.2 94.5C410.6 94.5 441.6 124.5 447 132C454.1 142 468.6 160.6 477.6 171.5C486.5 182.3 496.9 196.8 497 198.6C497 200.5 486.5 213.9 481.5 218.3C476.1 223.1 453.4 247.9 447.2 255.8C443.4 260.7 443 261.7 443 266.8C443 270 443.7 277 444.5 282.5C445.3 288 446 299 446 307C446.1 320.8 447.1 341.5 448.6 361.7C449.3 370.9 449.3 370.9 446.8 371.9C445.4 372.4 444 373.6 443.6 374.5C443.3 375.4 443 383.6 443 392.6V409H435H427V391.5C427 371.4 428.1 373.3 415.5 372.8L408.5 372.5L407.7 388C407.3 396.5 406.6 404.9 406.2 406.5C405.4 409.5 405.4 409.5 397.7 409.8C391.7 410 389.8 409.8 389.4 408.6ZM420.3 255.8C421.6 254.5 427.4 248.1 433.1 241.6C438.8 235 446.3 226.5 449.7 222.6C453.2 218.7 455.9 214.8 455.7 214C455.6 213.2 445.9 205.9 434.1 197.8C417.3 186.2 412.4 183.3 411 184C408.9 185.1 379.4 215.5 377.3 218.7C375.8 220.9 376 221.3 380 226.5C382.3 229.5 386.1 233.7 388.3 236C393.1 240.5 415.8 258 417.1 258C417.5 258 419 257 420.3 255.8Z" fill="#F3F3F3"/>
<path d="M408 241.8C397.6 235.5 387 225.1 387 221.4C387 219.4 389.4 216.3 396.8 208.8C402.1 203.3 407.8 197.9 409.3 196.8L412.1 194.8L420.6 200.6C425.2 203.9 432.3 208.5 436.3 211C440.5 213.7 443.5 216.3 443.5 217.2C443.5 219.5 419 247 417 247C416.7 247 412.6 244.7 408 241.8Z" fill="#F3F3F3"/>
<path d="M320.5 356.6C295.5 347 252.5 322.5 215.6 297C197.9 284.7 166.3 260.4 146.9 244C131.6 231.1 113.3 215 110.6 212.2C106.1 207.4 103.4 210.2 148 173.3C188.3 140 192.5 136.6 208.5 124.5C258.7 86.3999 315.3 56.4999 358 45.5999C376.5 40.8999 389.4 39.6999 416.1 40.2999C443.6 40.7999 451.9 42.1999 474.9 49.8999C492.8 55.8999 518.5 67.5999 536.3 77.8999C541.2 80.6999 545.4 82.9999 545.6 82.9999C548.1 82.9999 592.9 112.3 613 127.1C649.7 154.2 707.3 203.2 708.6 208.6C709.4 211.8 709 212.2 688.5 230C643.3 268.9 605.3 297.2 566.5 320.6C543.4 334.5 493 357 484.2 357.3C480.2 357.5 479.4 357.1 476.5 353.7C474.7 351.6 473 348.5 472.6 346.8C471.7 342.5 471.9 309.7 472.8 308.5C473.2 307.9 476.5 305.1 480.2 302.2C488.9 295.3 501.5 281.8 507.4 273C516 260.2 523.5 240.6 526.6 222.7C529.1 208.4 528.1 185.9 524.2 171.5C514.8 136.9 498.4 112.7 473.3 96.2999C449.5 80.7999 425.9 74.9999 399.8 78.3999C380.2 80.8999 364.8 86.7999 348.3 98.1999C298.4 132.6 281.6 206.6 311.1 261.8C318.2 275.3 324.9 283.8 339.1 297.8L351.5 309.9L351.2 319.5C350.7 334.3 347.1 346.1 339.8 356.8C336.1 362.2 334.8 362.1 320.5 356.6Z" fill="#F3F3F3"/>
</svg>