<svg width="142" height="30" viewBox="0 0 142 30" fill="none" xmlns="http://www.w3.org/2000/svg">
<path d="M4.48101 8.92405C4.48101 10.4051 5.73418 11.7722 7.32911 11.7722C8.92405 11.7722 10.1772 10.519 10.1772 8.92405C10.1772 7.29114 8.92405 6.07595 7.32911 6.07595C5.73418 6.07595 4.48101 7.44304 4.48101 8.92405ZM22.0253 0H17.4304C17.3165 0 17.1646 0.113923 17.1646 0.265822V29.7342C17.1646 29.8481 17.2785 30 17.4304 30H22.0253C26.2405 30 29.7342 26.5063 29.7342 22.4051V7.70886C29.7342 3.45569 26.2405 0 22.0253 0ZM23.1266 19.4051C21.4937 19.4051 20.1266 18.038 20.1266 16.4051C20.1266 14.7722 21.4937 13.4051 23.1266 13.4051C24.7595 13.4051 26.1266 14.7722 26.1266 16.4051C26.1266 18.038 24.7595 19.4051 23.1266 19.4051ZM14.0506 0H7.59494C3.37975 0 0 3.49367 0 7.70886V22.2532C0 26.4683 3.49367 29.8481 7.59494 29.8481H14.0506C14.1646 29.8481 14.3165 29.7342 14.3165 29.5823V0.227845C14.3165 0.113921 14.1646 0 14.0506 0ZM11.8101 27.4937H7.44304C6.07595 27.4937 4.70886 27 3.72152 26.0127C2.73418 25.0253 2.24051 23.6582 2.24051 22.2911V7.74683C2.24051 6.37974 2.73418 5.01265 3.72152 4.02531C4.70886 3.03797 6.07595 2.5443 7.44304 2.5443H11.8101V27.4937ZM60.9494 3.45569L65.0506 9.03797H66.6835V0.56962H65.0506V6.03797L60.9494 0.56962H59.2025V8.92405H60.9494V3.45569ZM43.8987 19.519C41.6582 19.1392 40.1772 18.7595 40.1772 17.6582C40.1772 16.4051 41.8101 15.9114 44.0506 15.9114C46.0253 15.9114 48.1519 16.6709 48.9114 17.0127L50.0127 14.2785C49.2532 13.8987 46.6709 13.0253 43.8987 13.0253C40.557 13.0253 36.7975 14.6582 36.7975 17.7721C36.7975 20.2785 38.5443 21.4937 43.1392 22.3671C46.3671 22.8608 48.1139 23.2405 48 24.6076C48 25.3671 47.3924 26.5823 43.7848 26.5823C40.9367 26.5823 38.8101 25.5949 38.2025 25.1013L36.7215 27.8354C37.481 28.2152 40.2152 29.4684 43.6709 29.4684C48.6456 29.4684 51.3797 27.7215 51.3797 24.4937C51.1139 22.6329 50.5063 20.6203 43.8987 19.519ZM39.076 3.45569L43.1772 9.03797H44.8101V0.56962H43.0633V6.03797L38.962 0.56962H37.2152V8.92405H38.962L39.076 3.45569ZM68.9241 24.7595L65.5823 13.3291H62.7342L59.3924 24.7595L56.3924 13.3291H52.8987L57.3797 29.1266H61.2532L64.2532 18.6835L67.2532 29.1266H71.1266L75.6076 13.3291H72.1139L68.9241 24.7595ZM53.0127 0.607591H51.1519V8.96202H53.0127V0.607591ZM79.3671 29.0886H82.8608V13.2911H79.3671V29.0886ZM131.772 0.34177C129.266 0.34177 127.291 2.31645 127.291 4.82278C127.291 7.32911 129.266 9.3038 131.772 9.3038C134.278 9.3038 136.253 7.32911 136.253 4.82278C136.101 2.35443 134.127 0.34177 131.772 0.34177ZM131.772 7.44303C130.291 7.44303 129.152 6.34177 129.152 4.82278C129.152 3.3038 130.253 2.20253 131.772 2.20253C133.253 2.20253 134.392 3.3038 134.392 4.82278C134.354 6.18987 133.139 7.44303 131.772 7.44303ZM132.266 19.519H124.937V13.2911H121.709V29.0886H124.937V22.7468H132.266V29.0886H135.494V13.2911H132.266V19.519ZM140.848 27L140.354 28.6329L139.861 27H139.253V29.1266H139.633V27.4937L140.24 29.1266H140.62L141.228 27.4937V29.1266H141.608V27H140.848ZM117.57 0.607591H114.076V8.96202H117.57C119.924 8.96202 121.937 7.10127 121.937 4.74684C121.785 2.46835 119.924 0.607591 117.57 0.607591ZM117.57 7.21519H115.709V2.35443H117.57C118.937 2.35443 120.076 3.45569 120.076 4.86075C120.076 6.26582 118.937 7.21519 117.57 7.21519ZM136.975 27.3418H137.582V29.0886H137.962V27.3418H138.57V26.962H136.823V27.3418H136.975ZM111.114 16.2911C112.861 16.2911 114.608 17.2785 115.481 18.7975L118.101 16.557C116.468 14.2025 113.886 12.8354 111.152 12.8354C106.557 12.8354 102.684 16.557 102.684 21.3038C102.684 25.8987 106.405 29.7721 111.152 29.7721C114 29.7721 116.62 28.4051 118.101 26.0506L115.481 23.8101C114.608 25.2911 112.861 26.3165 111.114 26.3165C108.38 26.3165 106.139 24.0759 106.139 21.3418C106.139 18.6076 108.38 16.2911 111.114 16.2911ZM92.5823 7.44303H87.7215V5.46835H92.2025V3.98734H87.7215V2.2405H92.5823V0.607591H86.1266V8.96202H92.5823V7.44303ZM86.7342 16.6709H91.8228V29.1266H95.1646V16.6709H100.139V13.3291H86.6962V16.6709H86.7342ZM79.8608 0.607591H72.7595V2.35443H75.4937V8.96202H77.2405V2.35443H79.8608V0.607591ZM107.013 9.07595V0.607591H105.266V6.07595L101.165 0.607591H99.4177V8.96202H101.165V3.37974L105.266 8.96202L107.013 9.07595Z" fill="white"/>
</svg>