<svg width="141" height="30" viewBox="0 0 141 30" fill="none" xmlns="http://www.w3.org/2000/svg">
<path d="M71.9185 21.8995V7.94711C71.9185 5.09352 73.2379 3.05961 76.0739 3.05961H93.5593C93.647 3.05961 93.7653 2.96756 93.7653 2.85359V0.0657525C93.7653 0.0438355 93.7653 0.0263004 93.7434 0H72.3524C67.7192 0.591759 65.4573 3.83548 65.4573 7.94272V21.8951C65.4573 24.7005 64.0897 26.7563 61.3019 26.7563H42.8784C42.7601 26.7563 42.6724 26.822 42.6724 26.9623V29.7458C42.6724 29.8641 42.7206 29.9562 42.782 29.9737H63.739C69.1964 29.8159 71.8922 26.3442 71.8922 21.8732L71.9185 21.8995ZM0.135885 30H6.27703C6.32772 29.9819 6.37105 29.9476 6.40035 29.9025C6.42966 29.8573 6.44331 29.8038 6.43922 29.7501V20.8738C6.43922 18.0202 8.03477 16.0564 10.3843 16.0564H35.6634C41.3442 16.0564 44.1102 12.5628 44.1102 7.97341C44.1102 3.83986 41.8483 0.622443 37.2151 0.0306837H0.0482174C0.0482174 0.0482173 0 0.0701358 0 0.0964362V2.88428C0 3.02016 0.0701344 3.0903 0.20602 3.0903H33.5155C36.3515 3.0903 37.671 5.1242 37.671 7.95149C37.671 10.7788 36.3515 12.839 33.5155 12.839H7.17563C3.08591 12.839 0.0043834 16.3106 0.0043834 20.8738V29.7501C0.0043834 29.8685 0.0745178 29.9606 0.162186 29.9781L0.135885 30ZM93.647 26.787H127.211C127.298 26.787 127.39 26.8527 127.39 26.9229V29.7501C127.39 29.8904 127.478 29.9606 127.57 29.9606H133.619C133.738 29.9606 133.847 29.8904 133.847 29.7501V26.9667C133.847 26.8483 133.966 26.7607 134.075 26.7607H140.085C140.221 26.7607 140.291 26.6423 140.291 26.5546V23.7186C140.291 23.609 140.243 23.4907 140.085 23.4907H134.075C133.966 23.4907 133.847 23.403 133.847 23.3109V3.05961C133.847 1.41584 133.255 0.363824 132.203 0.00438517H130.468C129.847 0.189744 129.251 0.448746 128.692 0.775862L92.5731 23.083C91.1572 23.9728 90.6794 24.9547 91.0169 25.6824C91.2931 26.3004 92.1172 26.7563 93.6645 26.7563L93.647 26.787ZM98.9027 23.0655L126.891 5.73787C127.07 5.60199 127.417 5.64582 127.417 6.03595V23.3416C127.417 23.4512 127.325 23.5476 127.237 23.5476H99.0605C98.8326 23.5476 98.723 23.4775 98.6967 23.4117C98.6485 23.2715 98.7186 23.1619 98.9027 23.0655Z" fill="#F3F3F3"/>
</svg>