<svg width="101" height="30" viewBox="0 0 101 30" fill="none" xmlns="http://www.w3.org/2000/svg">
<path d="M15.5538 0C7.6839 0 1.22929 6.06862 0.607422 13.7884L8.64888 17.1122C9.33508 16.6405 10.15 16.3831 11.0292 16.3831C11.1149 16.3831 11.1793 16.3831 11.265 16.3831L14.8462 11.1937C14.8462 11.1723 14.8462 11.1508 14.8462 11.1294C14.8462 8.02001 17.3765 5.46819 20.5074 5.46819C23.6167 5.46819 26.1685 7.99857 26.1685 11.1294C26.1685 14.2387 23.6382 16.7906 20.5074 16.7906C20.4645 16.7906 20.4216 16.7906 20.3787 16.7906L15.275 20.436C15.275 20.5004 15.275 20.5647 15.275 20.629C15.275 22.9664 13.3665 24.8749 11.0292 24.8749C8.97054 24.8749 7.25503 23.4167 6.86904 21.4653L1.12208 19.0851C2.90192 25.3896 8.69177 30 15.5538 30C23.8312 30 30.5431 23.2881 30.5431 15.0107C30.5431 6.71194 23.8312 0 15.5538 0Z" fill="#F3F3F3"/>
<path d="M9.99994 22.7519L8.15576 22.0014C8.47742 22.6876 9.0564 23.2452 9.80694 23.5668C11.4367 24.2316 13.3023 23.481 13.9671 21.8513C14.2887 21.0579 14.2887 20.2001 13.9671 19.4067C13.6454 18.6133 13.0235 18.0128 12.2515 17.6697C11.4796 17.3481 10.6433 17.3481 9.91416 17.6269L11.8227 18.4203C13.0235 18.9135 13.5811 20.2859 13.0879 21.4868C12.5732 22.6876 11.2008 23.2666 9.99994 22.7519Z" fill="#F3F3F3"/>
<path d="M24.2602 11.1294C24.2602 9.04929 22.5661 7.35522 20.486 7.35522C18.406 7.35522 16.7119 9.04929 16.7119 11.1294C16.7119 13.2094 18.406 14.9035 20.486 14.9035C22.5661 14.9035 24.2602 13.2094 24.2602 11.1294ZM17.6769 11.1294C17.6769 9.56395 18.9421 8.29875 20.5075 8.29875C22.0729 8.29875 23.3381 9.56395 23.3381 11.1294C23.3381 12.6948 22.0729 13.9599 20.5075 13.9599C18.9421 13.9599 17.6769 12.6948 17.6769 11.1294Z" fill="#F3F3F3"/>
<path d="M46.5619 10.2715L45.554 12.0299C44.782 11.4938 43.7313 11.1722 42.8092 11.1722C41.7585 11.1722 41.1151 11.6011 41.1151 12.373C41.1151 13.3166 42.2731 13.531 43.9672 14.1529C45.8113 14.7962 46.8621 15.5682 46.8621 17.2408C46.8621 19.5353 45.0608 20.8434 42.4447 20.8434C41.1795 20.8434 39.6355 20.5217 38.4775 19.7926L39.2066 17.8412C40.1716 18.3559 41.3081 18.6347 42.316 18.6347C43.6884 18.6347 44.3532 18.12 44.3532 17.3695C44.3532 16.5117 43.3667 16.2544 41.7585 15.7183C39.9357 15.0964 38.6491 14.303 38.6491 12.4374C38.6491 10.3359 40.3217 9.13501 42.7449 9.13501C44.4389 9.15645 45.8113 9.69255 46.5619 10.2715Z" fill="#F3F3F3"/>
<path d="M54.41 11.3868V20.6505H52.0511V11.3868H48.6201V9.34961H57.841V11.3868H54.41Z" fill="#F3F3F3"/>
<path d="M62.8163 11.3868V13.9172H67.341V15.9543H62.8163V18.6134H68.0701V20.6505H60.4575V9.34961H68.0701V11.3868H62.8163Z" fill="#F3F3F3"/>
<path d="M73.345 18.4633L72.5944 20.6505H70.1069L74.3528 9.34961H76.7331L81.0862 20.6505H78.5129L77.741 18.4633H73.345ZM75.5322 12.0515L73.9883 16.5762H77.1191L75.5322 12.0515Z" fill="#F3F3F3"/>
<path d="M93.2451 13.7242L90.1571 20.3289H88.8062L85.7826 13.7885V20.6505H83.5095V9.34961H85.7611L89.5567 17.5197L93.2236 9.34961H95.5181V20.6505H93.2451V13.7242Z" fill="#F3F3F3"/>
<path d="M100.086 10.7862C100.086 11.7511 99.3565 12.3516 98.5202 12.3516C97.6839 12.3516 96.9548 11.7511 96.9548 10.7862C96.9548 9.8212 97.6839 9.22077 98.5202 9.22077C99.3565 9.19933 100.086 9.79975 100.086 10.7862ZM97.2122 10.7862C97.2122 11.601 97.7911 12.1157 98.5202 12.1157C99.2279 12.1157 99.8283 11.601 99.8283 10.7862C99.8283 9.9713 99.2493 9.47809 98.5202 9.47809C97.8126 9.45665 97.2122 9.9713 97.2122 10.7862ZM98.5417 9.97131C98.9491 9.97131 99.0778 10.1857 99.0778 10.4216C99.0778 10.6361 98.9491 10.7862 98.799 10.8505L99.1636 11.5367H98.8633L98.5631 10.9363H98.2415V11.5367H97.9841V9.99275H98.5417V9.97131ZM98.2415 10.7004H98.5202C98.6918 10.7004 98.799 10.5932 98.799 10.4431C98.799 10.293 98.7132 10.2072 98.5202 10.2072H98.2415V10.7004Z" fill="#F3F3F3"/>
</svg>