<svg width="800" height="293" viewBox="0 0 800 293" fill="none" xmlns="http://www.w3.org/2000/svg">
<path d="M760 290.81C749.3 286.01 743 275.31 747.4 269.41C748.4 268.01 749.5 267.71 752.5 268.21C757.5 269.01 760.5 271.11 763.5 276.01C764.9 278.21 767.3 280.41 768.7 281.01C772.6 282.51 777 277.71 781 267.61C784.2 259.51 784.3 259.21 783.7 247.41C783 233.81 781.2 224.41 777.7 216.11C776.4 213.01 772.6 202.31 769.2 192.41C765.9 182.51 761.3 169.71 759 163.91C742.7 122.81 740.4 112.01 745.1 99.4101C749.7 87.0101 759.5 80.7101 771.1 82.5101C774.3 83.0101 776.4 84.3101 779.5 87.4101C784.1 92.0101 785.5 96.1101 783.7 99.9101C781.7 104.01 778.4 103.71 773.5 98.9101C769.6 95.1101 769 94.8101 766.9 95.9101C760.9 99.0101 760 100.71 760 108.81C760 113.01 760.7 119.41 761.5 123.21C763.7 133.91 772.3 158.61 778.3 171.51C783.4 182.51 792.1 207.51 797.2 225.81C798.8 231.51 799.4 237.21 799.8 248.81C800.2 263.71 800.1 264.41 797.5 271.31C793.3 282.01 790.3 285.91 783.5 289.61C776 293.61 767.2 294.11 760 290.81Z" fill="#F3F3F3"/>
<path d="M704.7 285.51C694.4 282.01 684.8 278.41 683.5 277.51C676.3 272.81 674.7 260.81 676.7 226.41C678.3 199.21 678 168.61 676 151.91C675 142.91 675 138.41 676.6 120.61L678.4 99.8101L676.1 94.6101C672.5 86.4101 672.4 85.5101 675.7 83.9101C677.2 83.2101 682.6 82.4101 687.5 82.2101C696 81.8101 697.4 82.0101 712.9 86.8101C721.9 89.5101 729.5 92.1101 729.8 92.4101C730.2 92.7101 729.9 93.8101 729.3 94.7101C727.8 97.1101 722.4 96.8101 711.7 93.8101C703.4 91.5101 702.8 91.5101 701.6 93.1101C700.4 94.7101 699.4 100.21 694.4 132.21L692.7 143.01L695.6 147.21C699.6 152.91 713.1 164.11 720.7 168.01C727 171.21 728.3 173.21 725.8 175.71C723.7 177.81 721.8 177.01 709.4 168.81C702.6 164.31 696.8 160.91 696.3 161.21C695.8 161.51 695.4 171.61 695.2 183.61C695.1 201.81 693.6 227.41 691.3 253.81L690.8 259.11L695.9 263.91C701.2 268.91 712.4 275.21 722.5 278.91C725.8 280.21 729.3 281.81 730.3 282.71C733.9 285.91 731.1 291.91 725.9 291.91C724.6 291.91 715 289.01 704.7 285.51Z" fill="#F3F3F3"/>
<path d="M14 287.91C9.7 281.81 9.7 281.91 8.2 177.91C7.3 111.81 7.1 106.81 5.1 97.8101C4 92.5101 2.3 86.3101 1.5 83.9101C0.7 81.6101 0 77.9101 0 75.8101C0 69.8101 2.5 68.8101 16.5 68.6101C30.7 68.4101 30.2 68.0101 35.6 84.2101C37.6 90.3101 42.4 102.11 46.2 110.21C53.3 125.31 54.5 129.31 64 169.21C65.9 176.71 67.9 183.41 68.7 184.01C69.4 184.61 70.1 185.01 70.2 184.81C70.3 184.61 70.7 160.61 71 131.41L71.5 78.4101L75.6 78.1101C78.4 77.9101 80.4 78.4101 82 79.7101L84.3 81.6101L83 97.5101C82.2 107.91 81.5 142.01 81.1 196.41C80.8 242.11 80.1 280.01 79.7 280.71C78.5 282.51 75.2 282.21 74.1 280.01C73.5 279.01 71.9 269.11 70.5 258.11C68 238.31 65.2 223.01 60.5 203.41C55.9 184.41 54.1 176.31 50.5 159.91C45.9 138.71 42.5 125.31 40.5 120.41C34 104.51 29.8 96.4101 28 96.4101C26.2 96.4101 26.2 96.1101 28.5 126.81C30.2 150.81 30.3 178.61 29 231.21C28.3 261.41 28.4 267.61 29.6 270.41C30.4 272.31 31 276.31 31 279.31C31 286.81 28.3 290.01 21.3 290.61C16.6 291.11 16.2 291.01 14 287.91Z" fill="#F3F3F3"/>
<path d="M635.6 287.71C628.9 278.81 624.5 261.31 621.5 231.21C620 215.81 619.4 212.91 618 212.91C616 212.91 616 213.31 613.1 259.31C612.6 267.21 611.7 274.61 611.1 275.81C609.7 278.31 605.3 279.61 603.1 278.21C601.9 277.41 601.3 274.61 600.8 266.31C599.1 241.71 596.9 214.51 595.5 200.91C594.3 189.71 594.1 179.21 594.6 154.91C594.9 137.61 594.7 117.71 594.2 110.71C593.3 99.2101 592.9 97.5101 590.1 92.4101C586.3 85.8101 586.9 84.0101 593.2 81.4101C599.5 78.9101 606.6 78.5101 613.5 80.2101C616.8 81.0101 622.2 82.0101 625.5 82.4101C638.8 83.8101 646.5 87.9101 650.4 95.7101C652.4 99.7101 653 103.91 654.9 124.41C658.4 164.11 657.6 184.61 651.9 197.81C649 204.61 645.9 206.31 638.1 205.41C633.2 204.81 632.2 205.01 630.6 206.81C628.9 208.71 628.9 209.41 630.4 224.11C631.8 237.81 634.3 251.81 639.7 275.91C640.6 280.01 641.4 285.01 641.4 286.91C641.5 291.71 638.9 292.01 635.6 287.71ZM636.4 188.61C639 186.01 640.1 180.71 642.1 162.41C643.2 153.01 643.1 148.11 641.6 130.01C639.1 100.41 637.2 94.1101 629.6 90.5101C624.6 88.2101 620.4 88.5101 617.5 91.4101C615.4 93.4101 615 94.8101 615 99.6101C615 102.81 614.5 122.71 614 143.81C613.4 168.61 613.4 182.91 614.1 184.01C615.3 186.31 618.2 187.91 624 189.51C630.9 191.41 633.8 191.21 636.4 188.61Z" fill="#F3F3F3"/>
<path d="M408.9 286.31C406.8 283.81 407 229.71 409.3 198.41C413.7 135.21 413.7 119.51 408.9 100.31C407.7 95.7102 407.1 90.8102 407.4 89.4102C408.3 85.8102 412.8 83.9102 420.4 83.9102C432.2 83.9102 434.1 86.1102 437.5 103.21C438.8 110.01 440.9 118.91 442.1 123.01C446.1 137.01 447.9 146.41 449 159.41C451.3 187.91 452.1 195.41 452.9 196.21C454.5 197.81 454.2 199.21 460.9 163.41C467.5 128.81 469 119.51 469.6 111.11C470.2 103.61 470.8 101.31 474.2 94.7102C477.9 87.5102 478.4 87.0102 483 85.5102C489.3 83.4102 493.4 83.5102 495.1 85.6102C496.9 87.7102 496.9 133.91 495.1 159.91C492.2 203.81 491.8 212.81 491.6 234.91C491.5 254.11 491.9 260.51 493.4 269.61C496.1 285.21 494.6 287.91 483 287.91C477.2 287.91 477.6 289.01 475.9 268.11C474.4 249.81 475.3 185.61 477.4 159.51C478.3 149.01 478.7 140.31 478.5 140.01C477.2 138.81 476 142.21 473.6 152.91C468.2 177.51 464.4 197.81 455.9 246.71C453.1 262.91 450.3 278.01 449.6 280.21C448.4 284.41 445.8 286.11 443.8 284.11C443.2 283.51 442.9 270.71 442.9 249.71C443 231.31 442.6 211.31 442.1 205.31C441.5 199.31 440.6 186.51 440 176.91C439.1 161.11 436.8 139.01 435.5 133.21C435.2 131.91 434.5 130.91 434 130.91C433.4 130.91 433 136.51 433 145.21C433 163.41 431.5 193.71 428.9 229.91C426.1 268.21 424.7 280.01 422.3 284.11C420.6 287.11 419.9 287.41 415.4 287.71C411.6 287.91 410 287.61 408.9 286.31Z" fill="#F3F3F3"/>
<path d="M562.4 285.91C559.5 284.81 559.1 282.41 559.1 269.21C559.1 263.01 558.9 257.51 558.6 257.01C558.2 256.51 557.5 248.11 557 238.41C556.4 228.71 555.5 219.81 555 218.81C553.1 215.41 550.3 214.71 541.9 215.41C537.6 215.81 533.4 216.61 532.6 217.21C531.6 218.11 530.3 225.21 528.1 241.91C526.4 254.81 525 267.41 524.9 269.91C524.7 276.71 523.7 279.21 520.1 281.61C516.4 284.11 515.2 284.31 513.1 283.01C512 282.31 511.7 279.71 511.8 271.71C512.1 256.61 515.8 222.11 518.4 210.11C520.7 199.61 525 171.81 525.1 167.41C525.1 165.21 525.7 159.81 526.5 155.41C527.4 151.01 528.5 142.71 529 136.91C529.5 131.11 530.4 123.31 531 119.41C531.5 115.61 532.5 105.41 533.1 96.9101C533.7 88.4101 534.7 80.6101 535.1 79.7101C537.6 75.1101 544.8 77.1101 547.5 83.2101C550.3 89.7101 554.1 103.61 555.6 112.91C556.5 118.11 558.7 131.41 560.6 142.41C565.3 170.11 569.7 212.81 570.5 238.41C570.7 246.11 571.6 258.61 572.5 266.11C573.3 273.61 573.7 280.51 573.4 281.41C572.9 282.71 565.9 287.11 564.8 286.81C564.6 286.81 563.5 286.41 562.4 285.91ZM552.4 204.01C554.5 202.31 554.5 196.91 552.4 181.41C551.6 174.81 550.5 165.11 550 159.91C548.5 143.61 545.8 133.81 543.4 136.21C543.1 136.51 541.7 144.71 540.4 154.31C539.2 163.91 537.6 174.41 537.1 177.61C536.5 180.81 535.6 187.51 535.1 192.41C534.3 199.91 534.4 201.81 535.7 203.81C537.1 205.91 537.7 206.11 544 205.71C547.7 205.51 551.5 204.71 552.4 204.01Z" fill="#F3F3F3"/>
<path d="M359.9 282.41C358.4 281.61 356.9 280.21 356.6 279.21C356.2 278.31 356 267.11 356.1 254.41C356.2 241.81 356.2 205.51 356 173.91C355.9 119.91 355.2 102.71 353.1 100.61C352.7 100.21 349.6 99.4101 346.2 98.9101C337.9 97.8101 336 96.6101 336 92.5101C336 87.0101 339 85.2101 350.6 83.8101C358.2 82.9101 364.4 82.8101 376 83.6101C390.1 84.5101 391.5 84.8101 393.2 86.9101C395.3 89.5101 395.5 92.8101 393.7 95.3101C392.6 96.8101 390.5 97.3101 384.6 97.7101C378.4 98.1101 376.7 98.5101 375.9 100.11C375.3 101.11 375.1 102.71 375.4 103.71C375.9 105.31 377.4 200.91 377.2 216.91C377.1 221.01 376.9 235.41 376.8 248.91C376.4 276.21 376.1 277.81 369.7 281.81C365.7 284.21 363.5 284.41 359.9 282.41Z" fill="#F3F3F3"/>
<path d="M245.6 281.61C243.7 280.21 243.7 278.91 244.3 246.81C244.7 228.41 245.5 207.31 246 199.91C246.5 192.51 247.5 176.51 248 164.41C249.8 125.61 251.9 89.5101 252.6 84.6101C253.1 81.1101 253.9 79.3101 255.6 78.2101C258.6 76.3101 264.3 77.2101 267.2 80.1101C269.5 82.4101 269.5 83.9101 266.3 135.61C265.4 150.61 264.9 163.21 265.4 163.61C266.2 164.41 293.1 165.71 296.2 165.11C297.1 164.91 298.1 163.71 298.4 162.61C298.7 161.41 299.5 142.21 300 119.91C300.6 97.6101 301.3 78.8101 301.5 78.1101C302.3 76.0101 306.5 74.9101 310.4 76.0101C317.1 77.8101 317.2 78.4101 317.2 111.11C317.2 127.61 316.7 143.01 316.1 146.41C315.6 149.71 314.8 164.81 314.5 179.91C314.2 195.01 313.3 213.91 312.5 221.91C311.7 229.91 310.6 245.61 309.9 256.91C308.5 281.41 308.3 281.91 300.6 281.91C297 281.91 294.8 281.41 294 280.41C292.2 278.31 292.6 249.81 294.5 236.01C295.7 227.51 298.2 188.91 298.1 180.51C298.1 177.11 296.1 176.41 284.3 176.01C270.9 175.61 265.3 176.81 264.6 180.21C264.3 181.41 263.6 191.41 263 202.41C262.4 213.41 261.5 228.51 261 235.91C260.5 243.31 260.1 256.21 260 264.51C260 276.91 259.7 279.91 258.5 280.91C256.1 282.91 247.9 283.31 245.6 281.61Z" fill="#F3F3F3"/>
<path d="M114.6 273.71C113.2 271.81 113 267.31 113 244.41C113.1 229.61 113.5 210.21 114 201.41C115.1 182.41 117.1 139.11 117.2 133.41C117.2 131.21 116.9 121.11 116.5 110.91C116 96.6101 116.2 91.4101 117.2 87.9101L118.6 83.4101L123.9 83.1101C126.9 82.9101 129.8 83.3101 130.6 84.0101C133.4 86.3101 131.6 177.71 127.9 220.21C127.1 229.71 127.1 237.81 127.9 250.71C129.2 270.21 128.7 274.01 124.9 275.01C119.8 276.41 116.2 276.01 114.6 273.71Z" fill="#F3F3F3"/>
<path d="M183.5 272.01C171.9 265.31 165.2 253.61 159.8 230.41C156.8 217.71 156.3 177.41 158.4 131.01C159.8 101.61 160.3 96.1101 161.8 93.5101C167 84.6101 193.5 82.0101 208.3 88.9101C216.5 92.8101 220.5 104.21 220.4 123.21C220.4 133.01 220.1 135.31 218.6 136.71C217 138.31 216.8 138.31 215 136.21C214 134.91 212.6 130.61 212 126.71C207.5 100.01 203.1 90.9101 194.4 90.9101C188.7 90.9101 181.8 97.0101 180.1 103.71C179 107.91 177.3 142.61 176.4 181.91C175.4 220.61 178.5 247.61 184.7 255.01C189 260.11 195.4 262.21 200.5 260.31C203.5 259.11 209.2 243.51 211.5 229.91C212.5 224.31 212.6 218.31 212 205.91C210.9 184.81 210 182.51 202.1 180.31C199 179.41 195.7 178.01 194.8 177.11C192.6 175.21 192.5 172.01 194.5 171.31C198.3 169.81 222.4 175.91 223.4 178.51C223.7 179.41 223.5 183.11 222.9 186.71C222.2 190.81 221.9 198.31 222.3 206.41C223.8 239.21 217.4 263.01 205 271.31C198.4 275.81 190.3 276.11 183.5 272.01Z" fill="#F3F3F3"/>
<path d="M321.4 60.7101C320.9 60.0101 320.3 54.5101 319.9 48.4101C319.5 42.4101 318.6 30.4101 318 21.9101C317.3 13.4101 316.7 5.31009 316.6 4.01009C316.5 1.01009 319.3 -0.989905 321.8 0.510095C323.1 1.31009 323.7 3.71009 324.3 10.5101C324.8 15.4101 325.9 27.3101 326.8 36.9101L328.5 54.4101L333.7 54.7101C337 54.9101 339 55.5101 339.4 56.4101C340.5 59.4101 338.9 60.6101 332.8 61.3101C324.2 62.2101 322.2 62.1101 321.4 60.7101Z" fill="#F3F3F3"/>
<path d="M414.8 60.8102C413.2 59.9102 413 57.9102 413.1 41.6102C413.1 12.9102 414.1 8.01016 419.4 7.91016C421.1 7.91016 421.2 9.01016 421 30.7102C420.8 43.2102 420.8 54.0102 420.9 54.7102C420.9 55.4102 422.6 55.9102 425.4 55.9102C430.6 55.9102 433.8 58.2102 431.9 60.5102C430.5 62.2102 417.5 62.4102 414.8 60.8102Z" fill="#F3F3F3"/>
<path d="M440 60.9101L436.5 60.4101L436.9 35.9101C437.1 22.3101 437.7 10.6101 438.2 9.51013C439.1 7.91013 440 7.71013 445.3 8.31013C451.5 8.91013 454 10.1101 454 12.5101C454 14.4101 450.4 16.0101 447.7 15.4101C445.5 14.8101 445.2 15.1101 444.6 19.5101C443.6 27.3101 443.7 27.7101 447.1 28.1101C453.4 28.7101 453.2 34.9101 446.9 34.9101C444.2 34.9101 444 35.2101 444 38.8101C444 40.9101 443.7 45.4101 443.4 48.7101C442.7 55.4101 442.5 55.2101 449.3 56.4101C452 56.8101 453 57.5101 453 58.8101C453 60.4101 452.1 60.8101 448.3 61.1101C445.6 61.2101 441.9 61.2101 440 60.9101Z" fill="#F3F3F3"/>
<path d="M350.1 59.01C348.5 57.41 348.1 54.91 347.6 42.31C346.2 10.61 346.3 8.41 348.6 8.11C353.1 7.51 353.8 10.01 355.1 33.01C355.8 44.81 356 55.71 355.7 57.11C354.8 60.51 352.4 61.31 350.1 59.01Z" fill="#F3F3F3"/>
<path d="M373.4 59.7101C373 59.1101 372.3 50.8101 371.9 41.5101C371.4 32.1101 370.8 22.1101 370.5 19.3101C369.9 14.4101 369.7 14.1101 365.9 12.6101C362.9 11.4101 361.9 10.5101 362.2 9.21014C362.5 7.61014 363.6 7.41014 372.5 7.61014C382.8 7.91014 385.7 9.01014 384.4 12.2101C383.8 13.9101 382.3 14.3101 378.6 13.9101C376.9 13.8101 376.8 14.3101 377.4 20.6101C379.2 40.9101 380.2 58.1101 379.6 59.4101C379 61.2101 374.4 61.4101 373.4 59.7101Z" fill="#F3F3F3"/>
<path d="M398.2 59.2101C397.7 58.2101 397 50.3101 396.6 41.7101C396.3 33.0101 395.7 23.3101 395.4 20.1101C394.8 14.6101 394.6 14.2101 391.6 13.3101C388.1 12.3101 387 9.51011 389.7 8.11011C390.7 7.61011 395.3 7.51011 400 7.81011C407.8 8.31011 408.5 8.61011 408.8 10.6101C409.2 13.1101 406.1 15.2101 403.5 14.2101C401.6 13.5101 401.7 15.8101 404.2 45.2101C405 55.1101 405 58.2101 404 59.4101C402.3 61.4101 399.3 61.3101 398.2 59.2101Z" fill="#F3F3F3"/>
</svg>