<svg width="151" height="30" viewBox="0 0 151 30" fill="none" xmlns="http://www.w3.org/2000/svg">
<g clip-path="url(#clip0_7_151)">
<path d="M96.6062 24.234L90.8598 16.4319L85.1196 24.234H82.7549L89.6632 14.8075L83.3539 6.23901H85.7187L90.8598 13.2272L96.0008 6.23901H98.364L92.0595 14.8059L98.9694 24.234H96.6062ZM51.8282 24.2308L44.912 14.8059L51.2212 6.23901H48.8564L43.7138 13.2288L38.5759 6.23901H36.2174L42.5235 14.8059L35.6089 24.2308H37.9768L43.717 16.4319L49.4618 24.2308H51.8282Z" fill="#F3F3F3"/>
<path d="M64.9766 15.4873C64.6203 15.1835 64.2234 14.9309 63.7973 14.7366C64.4511 14.3891 64.9978 13.87 65.3789 13.2351C65.76 12.6002 65.961 11.8735 65.9603 11.1329C65.9603 9.9816 65.5363 6.23751 60.113 6.23751H52.809V13.9954H50.3764C50.0611 14.407 49.3438 15.3959 49.071 15.8012H52.809V24.2309L60.1146 24.2325C64.0717 24.2325 66.5295 22.2232 66.5295 18.9791C66.5295 17.5628 65.995 16.3595 64.9766 15.4873ZM54.8285 8.11587H60.1146C61.5445 8.11587 63.9408 8.4723 63.9408 10.9752C63.9408 12.8677 62.5456 13.9954 60.1146 13.9954H54.8285V8.11587ZM60.113 22.3557H54.8269V15.8059H60.113C62.1168 15.8059 64.5147 16.3595 64.5147 18.9396C64.5147 21.9109 61.7573 22.3557 60.113 22.3557ZM76.0312 5.82431C70.9784 5.82431 67.447 9.68983 67.447 15.2255C67.447 20.7691 70.9784 24.6315 76.0312 24.6315C81.0792 24.6315 84.6012 20.7691 84.6012 15.2255C84.6012 9.68983 81.0792 5.82431 76.0312 5.82431ZM76.0312 22.7279C72.1813 22.7279 69.4839 19.6415 69.4839 15.2255C69.4839 10.8096 72.1813 7.72474 76.0312 7.72474C79.8747 7.72474 82.5564 10.8096 82.5564 15.2255C82.5564 19.6415 79.8747 22.7279 76.0312 22.7279ZM4.76911 4.31343L4.75492 4.32604C3.3402 5.71945 2.21716 7.38244 1.4514 9.21484C0.685635 11.0472 0.292495 13.0139 0.294936 15C0.290456 18.2833 1.36758 21.4765 3.3597 24.0858C3.38019 24.111 3.41173 24.1252 3.4401 24.111C3.4669 24.0953 3.46848 24.0621 3.45744 24.0338C2.31446 20.4978 8.15706 11.9278 11.1761 8.33509C11.1856 8.32247 11.1982 8.30827 11.1982 8.29093C11.1982 8.27042 11.184 8.25465 11.1698 8.24204C6.09182 3.18578 4.73601 4.34181 4.75492 4.32604M25.8094 4.31343L25.8236 4.32604C27.2382 5.71947 28.361 7.3825 29.1265 9.21492C29.892 11.0473 30.2848 13.014 30.282 15C30.2865 18.2833 29.2094 21.4765 27.2172 24.0858C27.1983 24.111 27.1652 24.1252 27.1368 24.111C27.1116 24.0953 27.11 24.0621 27.1195 24.0338C28.2625 20.4978 22.4246 11.9215 19.4071 8.3272C19.3961 8.31458 19.3851 8.30039 19.3851 8.28462C19.3851 8.26254 19.3977 8.24677 19.4135 8.23415C24.493 3.1779 25.8394 4.34181 25.822 4.32604M15.2893 0C18.3146 0 20.8039 0.829566 23.0994 2.19535C23.1277 2.20955 23.1356 2.24109 23.1246 2.26948C23.1136 2.29629 23.082 2.3026 23.0521 2.29471C20.1497 1.66702 15.737 4.17622 15.3208 4.42698C15.3113 4.43329 15.3019 4.4396 15.2893 4.4396C15.2751 4.4396 15.2656 4.43329 15.2562 4.42698C14.1494 3.7914 10.071 1.65282 7.50281 2.31048C7.47443 2.31679 7.4429 2.31206 7.43029 2.28367C7.42491 2.27034 7.42449 2.25553 7.42912 2.24192C7.43376 2.22831 7.44312 2.21682 7.45551 2.20955C9.75093 0.829566 12.2718 0 15.2893 0ZM15.2893 12.0303C15.3066 12.0303 15.3255 12.0445 15.3366 12.0539C19.8233 15.4668 27.5026 23.9044 25.1583 26.2906L25.1615 26.2875L25.1599 26.2906H25.1583C22.4292 28.687 18.919 30.0063 15.2877 30.0016C11.656 30.0059 8.147 28.6867 5.41706 26.2906C3.0775 23.9044 10.7552 15.4668 15.2372 12.0539C15.2498 12.0445 15.2703 12.0303 15.2893 12.0303ZM133.875 6.23909V21.0057L123.002 6.22805L121.219 6.2249V24.2041H123.221V9.76396L133.872 24.2151L135.879 24.2183V6.23909H133.875ZM110.825 5.82115C105.772 5.82115 102.239 9.68826 102.239 15.2224C102.239 20.766 105.772 24.6346 110.825 24.6346C115.873 24.6346 119.395 20.766 119.395 15.2224C119.395 9.68983 115.873 5.82115 110.825 5.82115ZM110.825 22.7279C106.975 22.7279 104.278 19.6415 104.278 15.2224C104.278 10.808 106.975 7.72159 110.825 7.72159C114.669 7.72159 117.35 10.808 117.35 15.2224C117.35 19.6415 114.669 22.7279 110.825 22.7279ZM140.141 22.4582V15.8059H150.036V14.0458H140.141V7.98497H150.708V6.22647H138.127V24.2183H150.833V22.4582H140.141Z" fill="#F3F3F3"/>
</g>
<defs>
<clipPath id="clip0_7_151">
<rect width="150.545" height="30" fill="white" transform="translate(0.291016)"/>
</clipPath>
</defs>
</svg>